<svg xmlns="http://www.w3.org/2000/svg" width="1920" height="462.414" viewBox="0 0 1920 462.414">
  <path id="Path_23" data-name="Path 23" d="M621.677,0,600.738,35.569,581.1,46.8l-9.16-11.233L549.695,20.6l-86.381,97.349-26.177-39.32-52.351,73.019-87.692,74.883-17.013-22.466-24.87,29.952L226.42,222.786l-32.719,46.8-49.732,35.569L119.1,269.587l-14.394,18.719L83.762,278.32H62.823L26.174,313.265,0,325.751V462.414H1920V393.142l-43.186-50.547-49.736-16.844-36.645,7.487-60.2-14.979-54.973,58.04H1637.3l-47.113-18.725-45.809-41.185-45.809-20.6-35.338-69.267-45.805,59.9-35.337-5.616-19.632-41.185-13.091,31.828-35.338,9.357-64.13-18.719-65.441-50.547-28.792-28.082-15.706,18.725-13.087-28.082-14.4,20.59-17.013,14.979-35.338-39.315-35.337,58.04-54.973,26.206-36.645-18.725-23.558-24.336L892.6,235.883,871.659,202.19l-32.723-39.315-32.719,9.363-27.485-33.7-52.351-11.227L663.56,58.035Z" transform="translate(0 0)" fill="#aa8b56"/>
</svg>
