<svg xmlns="http://www.w3.org/2000/svg" width="103" height="61.394" viewBox="0 0 103 61.394">
  <g id="Logo" transform="translate(-79.925 -155.981)">
    <g id="Text" transform="translate(79.925 203.465)">
      <path id="Path_3" data-name="Path 3" d="M81.981,313.929H79.925v-10.89h2.056Z" transform="translate(-79.925 -303.039)" fill="#f0ebce"/>
      <path id="Path_4" data-name="Path 4" d="M95.193,321.166a3.766,3.766,0,0,1-2.747-1.035,3.679,3.679,0,0,1-1.06-2.758v-.2a4.633,4.633,0,0,1,.447-2.067,3.279,3.279,0,0,1,1.265-1.4,3.553,3.553,0,0,1,1.868-.493,3.185,3.185,0,0,1,2.478.992,4.034,4.034,0,0,1,.9,2.815v.837H93.463a1.9,1.9,0,0,0,.6,1.205,1.811,1.811,0,0,0,1.265.454,2.212,2.212,0,0,0,1.851-.858l1.007,1.127a3.08,3.08,0,0,1-1.248,1.017A4.1,4.1,0,0,1,95.193,321.166Zm-.234-6.3a1.28,1.28,0,0,0-.989.413,2.138,2.138,0,0,0-.486,1.182h2.85v-.164a1.527,1.527,0,0,0-.369-1.057A1.321,1.321,0,0,0,94.959,314.863Z" transform="translate(-87.919 -310.134)" fill="#f0ebce"/>
      <path id="Path_5" data-name="Path 5" d="M117.191,317.117a4.549,4.549,0,0,1,.44-2.035A3.218,3.218,0,0,1,118.9,313.7a3.691,3.691,0,0,1,1.918-.489,3.493,3.493,0,0,1,2.535.95,3.812,3.812,0,0,1,1.1,2.581l.014.524a4.01,4.01,0,0,1-.985,2.832,3.819,3.819,0,0,1-5.293,0,4.081,4.081,0,0,1-.989-2.892Zm2.049.146a2.866,2.866,0,0,0,.411,1.672,1.477,1.477,0,0,0,2.34.007,3.137,3.137,0,0,0,.418-1.828,2.839,2.839,0,0,0-.418-1.662,1.36,1.36,0,0,0-1.177-.589,1.337,1.337,0,0,0-1.163.586A3.189,3.189,0,0,0,119.24,317.263Z" transform="translate(-105.918 -310.134)" fill="#f0ebce"/>
      <path id="Path_6" data-name="Path 6" d="M149.267,340.641h-6.459v-1.6h6.459Z" transform="translate(-123.786 -328.149)" fill="#f0ebce"/>
      <path id="Path_7" data-name="Path 7" d="M165.824,317.132a4.5,4.5,0,0,1,.84-2.843,2.722,2.722,0,0,1,2.265-1.077,2.388,2.388,0,0,1,1.964.865l.085-.723h1.857v7.416a3.277,3.277,0,0,1-.457,1.751,2.936,2.936,0,0,1-1.287,1.134,4.521,4.521,0,0,1-1.943.39,4.209,4.209,0,0,1-1.645-.337,2.918,2.918,0,0,1-1.212-.868l.908-1.248a2.4,2.4,0,0,0,1.857.858,1.757,1.757,0,0,0,1.269-.436,1.636,1.636,0,0,0,.454-1.237v-.411a2.37,2.37,0,0,1-1.865.8,2.716,2.716,0,0,1-2.237-1.081,4.494,4.494,0,0,1-.854-2.868Zm2.049.153a2.8,2.8,0,0,0,.418,1.636,1.33,1.33,0,0,0,1.149.593,1.423,1.423,0,0,0,1.34-.7V315.58a1.42,1.42,0,0,0-1.326-.7,1.339,1.339,0,0,0-1.159.6A3.154,3.154,0,0,0,167.873,317.284Z" transform="translate(-139.84 -310.134)" fill="#f0ebce"/>
      <path id="Path_8" data-name="Path 8" d="M193.152,317.117a4.549,4.549,0,0,1,.44-2.035,3.218,3.218,0,0,1,1.266-1.382,3.691,3.691,0,0,1,1.918-.489,3.493,3.493,0,0,1,2.535.95,3.812,3.812,0,0,1,1.1,2.581l.014.524a4.009,4.009,0,0,1-.986,2.832,3.819,3.819,0,0,1-5.292,0,4.081,4.081,0,0,1-.989-2.892Zm2.049.146a2.866,2.866,0,0,0,.411,1.672,1.477,1.477,0,0,0,2.339.007,3.137,3.137,0,0,0,.418-1.828,2.839,2.839,0,0,0-.418-1.662,1.36,1.36,0,0,0-1.177-.589,1.337,1.337,0,0,0-1.162.586A3.189,3.189,0,0,0,195.2,317.263Z" transform="translate(-158.901 -310.134)" fill="#f0ebce"/>
      <path id="Path_9" data-name="Path 9" d="M224.24,321.166a3.766,3.766,0,0,1-2.747-1.035,3.679,3.679,0,0,1-1.06-2.758v-.2a4.633,4.633,0,0,1,.447-2.067,3.279,3.279,0,0,1,1.265-1.4,3.553,3.553,0,0,1,1.868-.493,3.184,3.184,0,0,1,2.478.992,4.032,4.032,0,0,1,.9,2.815v.837H222.51a1.9,1.9,0,0,0,.6,1.205,1.811,1.811,0,0,0,1.265.454,2.212,2.212,0,0,0,1.851-.858l1.007,1.127a3.08,3.08,0,0,1-1.248,1.017A4.1,4.1,0,0,1,224.24,321.166Zm-.234-6.3a1.28,1.28,0,0,0-.989.413,2.138,2.138,0,0,0-.486,1.182h2.85v-.164a1.525,1.525,0,0,0-.368-1.057A1.321,1.321,0,0,0,224.006,314.863Z" transform="translate(-177.93 -310.134)" fill="#f0ebce"/>
      <path id="Path_10" data-name="Path 10" d="M250.548,318.9a.66.66,0,0,0-.372-.592,4.234,4.234,0,0,0-1.195-.386q-2.737-.574-2.737-2.326a2.107,2.107,0,0,1,.847-1.7,3.418,3.418,0,0,1,2.216-.684,3.678,3.678,0,0,1,2.336.688,2.168,2.168,0,0,1,.876,1.787H250.47a.992.992,0,0,0-.284-.727,1.2,1.2,0,0,0-.886-.287,1.226,1.226,0,0,0-.8.234.738.738,0,0,0-.284.6.632.632,0,0,0,.323.55,3.319,3.319,0,0,0,1.088.362,8.881,8.881,0,0,1,1.29.344,2.12,2.12,0,0,1,1.624,2.063,2,2,0,0,1-.9,1.7,3.884,3.884,0,0,1-2.326.649,4.055,4.055,0,0,1-1.712-.344,2.872,2.872,0,0,1-1.173-.943,2.19,2.19,0,0,1-.426-1.294h1.943a1.069,1.069,0,0,0,.4.836,1.6,1.6,0,0,0,1.007.291,1.483,1.483,0,0,0,.89-.223A.7.7,0,0,0,250.548,318.9Z" transform="translate(-195.765 -310.134)" fill="#f0ebce"/>
      <path id="Path_11" data-name="Path 11" d="M275.854,340.641h-6.459v-1.6h6.459Z" transform="translate(-212.081 -328.149)" fill="#f0ebce"/>
      <path id="Path_12" data-name="Path 12" d="M295.279,307.094a2.558,2.558,0,0,1,2.049-.978q2.5,0,2.531,2.9v4.913H297.81v-4.857a1.424,1.424,0,0,0-.283-.975,1.215,1.215,0,0,0-.943-.316,1.394,1.394,0,0,0-1.3.695v5.452H293.23v-10.89h2.049Z" transform="translate(-228.706 -303.039)" fill="#f0ebce"/>
      <path id="Path_13" data-name="Path 13" d="M320.207,304.681a1.01,1.01,0,0,1,.309-.759,1.329,1.329,0,0,1,1.677,0,1.083,1.083,0,0,1,0,1.524,1.314,1.314,0,0,1-1.666,0A1.006,1.006,0,0,1,320.207,304.681Zm2.176,9.656h-2.056v-7.671h2.056Z" transform="translate(-247.523 -303.448)" fill="#f0ebce"/>
      <path id="Path_14" data-name="Path 14" d="M335.766,310.852l-.737.737v2.34H332.98v-10.89h2.049v6.033l.4-.51,1.964-2.3h2.46l-2.772,3.2,3.013,4.474h-2.354Z" transform="translate(-256.432 -303.039)" fill="#f0ebce"/>
      <path id="Path_15" data-name="Path 15" d="M358.574,304.681a1.009,1.009,0,0,1,.309-.759,1.329,1.329,0,0,1,1.677,0,1.083,1.083,0,0,1,0,1.524,1.314,1.314,0,0,1-1.666,0A1.006,1.006,0,0,1,358.574,304.681Zm2.177,9.656h-2.056v-7.671h2.056Z" transform="translate(-274.284 -303.448)" fill="#f0ebce"/>
      <path id="Path_16" data-name="Path 16" d="M373.135,313.353l.064.886a2.678,2.678,0,0,1,2.2-1.028,2.225,2.225,0,0,1,1.815.716,3.341,3.341,0,0,1,.61,2.141v4.956H375.78v-4.906a1.33,1.33,0,0,0-.283-.947,1.27,1.27,0,0,0-.943-.294,1.41,1.41,0,0,0-1.3.737v5.41h-2.049v-7.671Z" transform="translate(-283.096 -310.134)" fill="#f0ebce"/>
      <path id="Path_17" data-name="Path 17" d="M397.246,317.132a4.5,4.5,0,0,1,.84-2.843,2.722,2.722,0,0,1,2.265-1.077,2.388,2.388,0,0,1,1.964.865l.085-.723h1.858v7.416a3.278,3.278,0,0,1-.457,1.751,2.936,2.936,0,0,1-1.287,1.134,4.521,4.521,0,0,1-1.943.39,4.206,4.206,0,0,1-1.645-.337,2.917,2.917,0,0,1-1.212-.868l.907-1.248a2.4,2.4,0,0,0,1.858.858,1.757,1.757,0,0,0,1.269-.436,1.636,1.636,0,0,0,.454-1.237v-.411a2.37,2.37,0,0,1-1.865.8,2.716,2.716,0,0,1-2.237-1.081,4.494,4.494,0,0,1-.854-2.868Zm2.049.153a2.8,2.8,0,0,0,.418,1.636,1.331,1.331,0,0,0,1.149.593,1.423,1.423,0,0,0,1.34-.7V315.58a1.42,1.42,0,0,0-1.326-.7,1.339,1.339,0,0,0-1.159.6A3.154,3.154,0,0,0,399.3,317.284Z" transform="translate(-301.258 -310.134)" fill="#f0ebce"/>
    </g>
    <g id="Mountain" transform="translate(96.369 155.981)">
      <path id="Base" d="M180.77,155.98l-16.057,28.086-11.443-19.82-18.982,32.878h70.005Z" transform="translate(-134.287 -155.98)" fill="#aa8b56"/>
      <g id="Peaks" transform="translate(11.805 3.025)">
        <path id="Path_18" data-name="Path 18" d="M186.712,204.083l-6.222-10.776-3.392,5.875h0l-3.785,6.556,4.266-2.374,2.911,1.694,1.42-3.422h0Z" transform="translate(-173.313 -185.04)" fill="#f0ebce"/>
        <path id="Path_19" data-name="Path 19" d="M267.268,176.757l6.222-10.776,3.392,5.875h0l3.785,6.556-4.266-2.374-2.911,1.694-1.42-3.422h0Z" transform="translate(-238.847 -165.981)" fill="#f0ebce"/>
      </g>
    </g>
  </g>
</svg>
